<svg width="60" height="60" viewBox="0 0 60 60" fill="none" xmlns="http://www.w3.org/2000/svg">
<rect x="0.5" y="0.5" width="59" height="59" rx="29.5" stroke="#E7E7E7"/>
<path d="M26.6665 34.0203C32.0889 34.0203 36.6665 34.9125 36.6665 38.3584C36.6665 41.8042 32.0595 42.6667 26.6665 42.6667C21.2441 42.6667 16.6665 41.7731 16.6665 38.3286C16.6665 34.8828 21.2721 34.0203 26.6665 34.0203ZM39.3318 24C39.9934 24 40.5304 24.546 40.5304 25.2155V26.7839H42.1345C42.7948 26.7839 43.3332 27.3298 43.3332 27.9993C43.3332 28.6689 42.7948 29.2148 42.1345 29.2148H40.5304V30.7846C40.5304 31.4541 39.9934 32 39.3318 32C38.6715 32 38.1332 31.4541 38.1332 30.7846V29.2148H36.5318C35.8702 29.2148 35.3332 28.6689 35.3332 27.9993C35.3332 27.3298 35.8702 26.7839 36.5318 26.7839H38.1332V25.2155C38.1332 24.546 38.6715 24 39.3318 24ZM26.6665 17.3334C30.3393 17.3334 33.2833 20.3155 33.2833 24.0358C33.2833 27.7561 30.3393 30.7383 26.6665 30.7383C22.9937 30.7383 20.0497 27.7561 20.0497 24.0358C20.0497 20.3155 22.9937 17.3334 26.6665 17.3334Z" fill="black"/>
</svg>
