<svg width="121" height="31" viewBox="0 0 121 31" fill="none" xmlns="http://www.w3.org/2000/svg">
<path d="M104.302 30.9493H112.336L102.942 18.3176L111.444 8.90739H102.729L96.2679 16.4101V0.853623H88.9139V30.9493H96.2679V25.7779L98.4359 23.3618L104.302 30.9493Z" fill="white"/>
<path d="M79.725 7.16947H87.0791V0.853623H79.725V7.16947ZM79.725 30.9493H87.0791V8.90739H79.725V30.9493Z" fill="white"/>
<path d="M67.3905 8.05669C63.5647 8.05669 61.4818 10.1761 61.3117 10.5576H61.1842V0.426812H53.8302V30.5225H61.1842V28.4454H61.3117C61.4818 28.8269 63.5647 30.9463 67.3905 30.9463C72.364 30.9463 77.8902 27.2162 77.8902 19.5015C77.8902 11.7869 72.364 8.05669 67.3905 8.05669ZM65.8602 24.4609C63.2246 24.4609 61.0142 22.6382 61.0142 19.5015C61.0142 16.3648 63.2246 14.5421 65.8602 14.5421C68.4107 14.5421 70.6637 16.4072 70.6637 19.5015C70.6637 22.5959 68.4107 24.4609 65.8602 24.4609Z" fill="white"/>
<path d="M44.6413 8.53623V20.2354C44.6413 22.5244 43.5361 24.5166 41.1131 24.5166C38.605 24.5166 37.4998 22.5244 37.4998 20.2354V8.53623H30.1458V21.507C30.1458 28.2468 33.8865 31.002 38.3075 31.002C41.2831 31.002 43.366 29.7727 44.6413 27.9924V30.5781H51.9953V8.53623H44.6413Z" fill="white"/>
<path d="M15.7283 30.9434C20.1492 30.9434 25.2078 29.3327 28.3109 23.9494L22.9123 20.2192C21.3395 22.5929 19.0865 23.8646 16.0259 23.8646C11.5199 23.8646 7.69411 20.8126 7.69411 15.4717C7.69411 10.2156 11.4349 7.07884 15.9408 7.07884C18.9165 7.07884 21.3395 8.35048 22.9123 10.6818L28.3109 6.99406C25.2078 1.61075 20.1917 0 15.7708 0C7.22651 0 0 6.01913 0 15.4717C0 24.9243 7.184 30.9434 15.7283 30.9434Z" fill="white"/>
<path d="M114.171 24.1145H121V30.9434H114.171V24.1145Z" fill="white"/>
</svg>
